<svg xmlns="http://www.w3.org/2000/svg" version="1.1" xmlnsXlink="http://www.w3.org/1999/xlink" xmlnsSvgjs="http://svgjs.dev/svgjs" width="1000" height="1000" viewBox="0 0 1000 1000"><rect width="1000" height="1000"></rect><g transform="matrix(0.7,0,0,0.7,149.57575757575756,282.1265587044535)"><svg viewBox="0 0 396 247" data-background-color="#dedede" preserveAspectRatio="xMidYMid meet" height="623" width="1000" xmlns="http://www.w3.org/2000/svg" xmlnsXlink="http://www.w3.org/1999/xlink"><g id="tight-bounds" transform="matrix(1,0,0,1,0.2400000000000091,-0.09999999999999432)"><svg viewBox="0 0 395.52 247.2" height="247.2" width="395.52"><g><svg></svg></g><g><svg viewBox="0 0 395.52 247.2" height="247.2" width="395.52"><g transform="matrix(1,0,0,1,39.55199999999999,105.50387888982337)"><svg viewBox="0 0 316.416 36.192242220353236" height="36.192242220353236" width="316.416"><g><svg viewBox="0 0 316.416 36.192242220353236" height="36.192242220353236" width="316.416"><g><svg viewBox="0 0 316.416 36.192242220353236" height="36.192242220353236" width="316.416"><g><svg viewBox="0 0 316.416 36.192242220353236" height="36.192242220353236" width="316.416"><g id="textblocktransform"><svg viewBox="0 0 316.416 36.192242220353236" height="36.192242220353236" width="316.416" id="textblock"><g><svg viewBox="0 0 316.416 36.192242220353236" height="36.192242220353236" width="316.416"><g transform="matrix(1,0,0,1,0,0)"><svg width="316.416" viewBox="2.9100000858306885 -36.040000915527344 319.2799987792969 36.53000259399414" height="36.192242220353236" ><path d="M25.56-11.28L30.27-11.28Q29.61-5.64 26.11-2.58 22.61 0.49 16.8 0.49L16.8 0.49Q10.5 0.49 6.7-4.03 2.91-8.54 2.91-16.11L2.91-16.11 2.91-19.53Q2.91-24.49 4.68-28.25 6.45-32.01 9.69-34.02 12.94-36.04 17.21-36.04L17.21-36.04Q22.88-36.04 26.29-32.87 29.71-29.71 30.27-24.12L30.27-24.12 25.56-24.12Q24.95-28.37 22.91-30.27 20.87-32.18 17.21-32.18L17.21-32.18Q12.72-32.18 10.17-28.86 7.62-25.54 7.62-19.41L7.62-19.41 7.62-15.97Q7.62-10.18 10.03-6.76 12.45-3.34 16.8-3.34L16.8-3.34Q20.7-3.34 22.79-5.11 24.88-6.88 25.56-11.28L25.56-11.28ZM64.01-18.87L64.01-16.63Q64.01-11.4 62.25-7.51 60.5-3.61 57.27-1.56 54.05 0.49 49.75 0.49L49.75 0.49Q45.55 0.49 42.31-1.57 39.06-3.64 37.27-7.46 35.47-11.28 35.42-16.31L35.42-16.31 35.42-18.87Q35.42-24 37.2-27.93 38.99-31.86 42.25-33.95 45.51-36.04 49.7-36.04L49.7-36.04Q53.98-36.04 57.24-33.97 60.5-31.91 62.25-27.99 64.01-24.07 64.01-18.87L64.01-18.87ZM59.35-16.28L59.35-18.92Q59.35-25.24 56.81-28.63 54.27-32.01 49.7-32.01L49.7-32.01Q45.26-32.01 42.71-28.63 40.16-25.24 40.09-19.24L40.09-19.24 40.09-16.63Q40.09-10.5 42.66-6.99 45.24-3.49 49.75-3.49L49.75-3.49Q54.29-3.49 56.78-6.8 59.27-10.11 59.35-16.28L59.35-16.28ZM75.75-35.55L75.75-3.83 92.6-3.83 92.6 0 71.04 0 71.04-35.55 75.75-35.55ZM102.65-35.55L102.65-3.83 119.5-3.83 119.5 0 97.94 0 97.94-35.55 102.65-35.55ZM144.94-20.26L144.94-16.43 129.53-16.43 129.53-3.83 147.43-3.83 147.43 0 124.84 0 124.84-35.55 147.18-35.55 147.18-31.69 129.53-31.69 129.53-20.26 144.94-20.26ZM174.69-11.28L179.41-11.28Q178.75-5.64 175.24-2.58 171.74 0.49 165.93 0.49L165.93 0.49Q159.63 0.49 155.83-4.03 152.04-8.54 152.04-16.11L152.04-16.11 152.04-19.53Q152.04-24.49 153.81-28.25 155.58-32.01 158.83-34.02 162.07-36.04 166.34-36.04L166.34-36.04Q172.01-36.04 175.43-32.87 178.84-29.71 179.41-24.12L179.41-24.12 174.69-24.12Q174.08-28.37 172.05-30.27 170.01-32.18 166.34-32.18L166.34-32.18Q161.85-32.18 159.3-28.86 156.75-25.54 156.75-19.41L156.75-19.41 156.75-15.97Q156.75-10.18 159.17-6.76 161.58-3.34 165.93-3.34L165.93-3.34Q169.84-3.34 171.92-5.11 174.01-6.88 174.69-11.28L174.69-11.28ZM209.65-35.55L209.65-31.69 198.23-31.69 198.23 0 193.56 0 193.56-31.69 182.16-31.69 182.16-35.55 209.65-35.55ZM219.95-35.55L219.95 0 215.27 0 215.27-35.55 219.95-35.55ZM255.86-18.87L255.86-16.63Q255.86-11.4 254.11-7.51 252.35-3.61 249.13-1.56 245.9 0.49 241.61 0.49L241.61 0.49Q237.41 0.49 234.16-1.57 230.91-3.64 229.12-7.46 227.32-11.28 227.27-16.31L227.27-16.31 227.27-18.87Q227.27-24 229.06-27.93 230.84-31.86 234.1-33.95 237.36-36.04 241.56-36.04L241.56-36.04Q245.83-36.04 249.09-33.97 252.35-31.91 254.11-27.99 255.86-24.07 255.86-18.87L255.86-18.87ZM251.2-16.28L251.2-18.92Q251.2-25.24 248.66-28.63 246.12-32.01 241.56-32.01L241.56-32.01Q237.11-32.01 234.56-28.63 232.01-25.24 231.94-19.24L231.94-19.24 231.94-16.63Q231.94-10.5 234.51-6.99 237.09-3.49 241.61-3.49L241.61-3.49Q246.15-3.49 248.64-6.8 251.13-10.11 251.2-16.28L251.2-16.28ZM290.21-35.55L290.21 0 285.5 0 267.6-27.39 267.6 0 262.89 0 262.89-35.55 267.6-35.55 285.55-8.03 285.55-35.55 290.21-35.55ZM309.01-15.84L309.01-15.84Q302.98-17.58 300.23-20.1 297.48-22.63 297.48-26.34L297.48-26.34Q297.48-30.54 300.84-33.29 304.2-36.04 309.57-36.04L309.57-36.04Q313.23-36.04 316.1-34.62 318.97-33.2 320.54-30.71 322.12-28.22 322.12-25.27L322.12-25.27 317.41-25.27Q317.41-28.49 315.36-30.33 313.31-32.18 309.57-32.18L309.57-32.18Q306.1-32.18 304.16-30.65 302.22-29.13 302.22-26.42L302.22-26.42Q302.22-24.24 304.06-22.74 305.91-21.24 310.34-20 314.77-18.75 317.27-17.25 319.77-15.75 320.98-13.75 322.19-11.74 322.19-9.03L322.19-9.03Q322.19-4.71 318.82-2.11 315.45 0.49 309.81 0.49L309.81 0.49Q306.15 0.49 302.98-0.92 299.8-2.32 298.08-4.76 296.36-7.2 296.36-10.3L296.36-10.3 301.07-10.3Q301.07-7.08 303.45-5.21 305.83-3.34 309.81-3.34L309.81-3.34Q313.52-3.34 315.5-4.86 317.48-6.37 317.48-8.98 317.48-11.6 315.65-13.02 313.82-14.45 309.01-15.84Z" opacity="1" transform="matrix(1,0,0,1,0,0)" fill="#ffffff" class="undefined-text-0" data-fill-palette-color="primary" id="text-0"></path></svg></g></svg></g></svg></g></svg></g></svg></g></svg></g></svg></g><g mask="url(#f9669c35-94c9-4891-b858-b2a6f09c1b77)"><g transform="matrix(3.1435897435897435, 0, 0, 3.1435897435897435, 56.29846153846154, 1)"><svg xmlns="http://www.w3.org/2000/svg" xmlnsXlink="http://www.w3.org/1999/xlink" version="1.1" x="0" y="0" viewBox="5 13 90 78" enable-background="new 0 0 100 100" xml:space="preserve" height="78" width="90" class="icon-none" data-fill-palette-color="accent" id="none"><g fill="#61777f" data-fill-palette-color="accent"><path d="M95 51H78.8l-8.3-14H53.9l-8.3 14H29v40h66V51zM93 89H31V53h15.8l8.3-14h14.4l8.3 14H93V89z" fill="#ffffff" data-fill-palette-color="accent"></path><path d="M62.5 55.4c-7.2 0-13 5.8-13 13s5.8 13 13 13 13-5.8 13-13S69.7 55.4 62.5 55.4zM62.5 79.4c-6.1 0-11-4.9-11-11s4.9-11 11-11 11 4.9 11 11S68.6 79.4 62.5 79.4z" fill="#ffffff" data-fill-palette-color="accent"></path><polygon points="5,74 15,74 15,72 7,72 7,64 5,64  " fill="#ffffff" data-fill-palette-color="accent"></polygon><rect x="5" y="36.7" width="2" height="13.7" fill="#ffffff" data-fill-palette-color="accent"></rect><polygon points="15,13 5,13 5,23 7,23 7,15 15,15  " fill="#ffffff" data-fill-palette-color="accent"></polygon><rect x="28.7" y="13" width="13.7" height="2" fill="#ffffff" data-fill-palette-color="accent"></rect><polygon points="66,23 66,13 56,13 56,15 64,15 64,23  " fill="#ffffff" data-fill-palette-color="accent"></polygon></g></svg></g></g></svg></g><defs><mask id="f9669c35-94c9-4891-b858-b2a6f09c1b77"><rect width="640" height="400" fill="white"></rect><rect width="348.05760000000004" height="53.280481769177456" fill="black" x="145.97119999999998" y="173.35975911541126" id="transform-me" transform="matrix(1,0,0,1,-122.24000000000001,-76.4)"></rect></mask></defs></svg><rect width="395.52" height="247.2" fill="none" stroke="none" visibility="hidden"></rect></g></svg></g></svg>